<svg id="Capa_1" enable-background="new 0 0 512.006 512.006" height="512" viewBox="0 0 512.006 512.006" width="512" xmlns="http://www.w3.org/2000/svg"><g><path d="m239.994 152.164c-2.988-2.869-7.736-2.772-10.604.216-2.562 2.668-5.604 4.028-8.739 3.977-2.923-.062-5.678-1.392-7.755-3.746-2.741-3.105-7.48-3.402-10.586-.66-3.105 2.741-3.401 7.48-.66 10.586 4.885 5.535 11.521 8.666 18.687 8.816.178.004.354.006.532.006 7.16 0 14.01-3.038 19.342-8.591 2.867-2.988 2.771-7.735-.217-10.604z"/><path d="m290.325 171.354c.162.003.323.005.485.005 7.164 0 14.012-3.042 19.33-8.6 2.864-2.993 2.76-7.74-.233-10.604-2.994-2.865-7.74-2.759-10.604.233-2.541 2.657-5.513 4.016-8.69 3.969-2.936-.056-5.707-1.391-7.804-3.757-2.747-3.099-7.486-3.387-10.587-.639-3.1 2.747-3.386 7.487-.639 10.587 4.908 5.541 11.565 8.669 18.742 8.806z"/><path d="m237.181 214.907c1.083 3.087 3.981 5.019 7.077 5.019.824 0 1.662-.137 2.483-.425 4.274-1.5 12.807-1.833 18.697.062 3.944 1.268 8.168-.9 9.437-4.842 1.269-3.943-.899-8.168-4.842-9.437-8.487-2.731-20.372-2.705-28.258.062-3.909 1.373-5.965 5.653-4.594 9.561z"/><path d="m437.934 362.207c-.121-32.551-11.656-48.529-41.142-56.986l-14.217-4.082c-3.982-1.142-8.135 1.158-9.278 5.14-1.143 3.981 1.158 8.135 5.139 9.278l14.219 4.082c19.999 5.736 30.173 13.903 30.279 42.629.104 23.229.07 34.328.028 48.379-.022 7.254-.046 15.242-.054 26.024l-43.314-.073v-37.23c0-4.142-3.358-7.5-7.5-7.5s-7.5 3.358-7.5 7.5v37.205l-54.592-.1-1.997-4.957-10.281-28.273c-6.812-18.762-22.993-26.359-35.455-24.167-2.328.409-4.429 1.175-6.261 2.21-1.832-1.034-3.934-1.8-6.262-2.21-12.47-2.196-28.664 5.402-35.479 24.169 0 0-11.521 32.162-12.078 33.447-.769.012-2.276-.207-2.719-.207l-52.299.088v-37.206c0-4.142-3.358-7.5-7.5-7.5s-7.5 3.358-7.5 7.5v37.233l-43.087.072c-.007-10.872-.028-18.904-.047-26.207-.036-14.007-.065-25.072.021-48.203.106-28.72 10.28-36.887 30.283-42.624l89.37-25.676c9.3 14.913 26.825 23.934 47.286 23.934s37.985-9.021 47.285-23.934l39.753 11.417c3.983 1.144 8.135-1.157 9.279-5.138s-1.157-8.135-5.138-9.279l-40.166-11.536v-29.844c12.397-8.141 23.665-18.661 32.842-30.856 7.201-9.569 12.832-19.886 16.767-30.474 22.305-1.685 37.985-13.896 37.985-30.282v-11.82c0-10.549-8.661-19.462-18.913-19.462h-12.526l-.025-50.639c0-29.798-22.442-55.358-60.032-68.374-20.443-7.078-42.878-9.362-63.169-6.43-22.769 3.29-40.872 12.742-52.348 27.328-.097.123-.245.31-.417.526-1.495-.083-3.298-.011-5.642.374-31.746 5.206-31.746 44.076-31.746 58.708v38.591h-12.522c-10.251 0-18.913 8.913-18.913 19.462v11.82c0 16.326 15.538 28.511 37.68 30.285 8.807 24.825 26.367 47.256 48.951 61.955v29.131l-89.78 25.793c-29.488 8.458-41.023 24.435-41.144 56.986-.086 23.178-.058 34.263-.021 48.298.023 8.88.049 18.83.049 33.68v30.161c0 20.766 16.882 37.661 37.633 37.661h32.54c4.142 0 7.5-3.358 7.5-7.5s-3.358-7.5-7.5-7.5h-32.54c-12.48 0-22.633-10.166-22.633-22.661v-22.673l110.396-.186c7.679 0 12.176-.372 15.309-8.007.51-1.242 13.576-35.116 13.576-35.116 3.888-10.709 11.073-13.532 13.981-14.248 3.08-.759 5.257-.29 6.161.129v46.907 55.854h-69.672c-4.142 0-7.5 3.358-7.5 7.5s3.358 7.5 7.5 7.5h77.172 144.263c20.75 0 37.632-16.895 37.632-37.661v-30.161c0-14.745.03-24.659.057-33.491.044-14.079.077-25.203-.027-48.483zm-74.765-208.885v-11.634h12.522c2.011 0 3.913 2.168 3.913 4.462v11.821c0 6.778-7.578 12.41-18.456 14.556 1.321-6.42 2.021-12.854 2.021-19.205zm-229.817 4.734v-11.82c0-2.294 1.901-4.462 3.913-4.462h12.522v11.492c0 6.477.676 12.954 1.928 19.354-10.827-2.165-18.363-7.793-18.363-14.564zm158.659 125.36c-7.085 14.329-23.105 19.48-36.013 19.48s-28.929-5.151-36.014-19.48v-24.875c1.738.792 3.493 1.546 5.271 2.247 10.848 4.271 20.497 6.407 30.147 6.407s19.301-2.136 30.149-6.408c2.172-.856 4.324-1.802 6.459-2.803v25.432zm-127.224-195.234c0-28.571 5.734-41.702 19.174-43.906 1.977-.323 2.655-.193 3.252-.078 6.213 1.196 8.967-2.294 12.16-6.342 20.389-25.912 65.15-27.666 98.827-16.005 31.271 10.827 49.94 31.089 49.94 54.203l.024 50.635h-9.912c-3.298-.025-5.981-2.65-5.981-5.851v-7.852c0-12.446-7.964-15.141-14.666-15.21-43.296-.324-87.69-2.403-119.091-15.31-3.674-1.513-8.708-3.583-13.184-.583-4.308 2.885-4.308 8.039-4.308 10.24v28.715c0 3.218-2.712 5.936-5.923 5.936h-10.313v-38.592zm0 65.083v-11.492h10.313c11.537 0 20.923-9.392 20.923-20.936v-23.227c33.391 12.724 77.933 14.833 121.247 15.163 0 .068.001.139.001.212v7.852c0 11.409 9.361 20.763 20.924 20.851h9.973v11.634c0 38.01-29.284 78.211-68.115 93.51-17.97 7.077-31.333 7.077-49.302 0-38.221-15.059-65.964-54.409-65.964-93.567zm258.119 321.08c0 12.495-10.153 22.661-22.632 22.661h-136.763v-55.854-46.909c.902-.416 3.075-.883 6.142-.128 2.905.716 10.083 3.538 13.974 14.252l10.535 28.97c3.48 9.576 8.042 14.15 18.335 14.15l110.409.186z"/></g></svg>